<?xml version="1.0"?>
<svg xmlns="http://www.w3.org/2000/svg" xmlns:xlink="http://www.w3.org/1999/xlink" version="1.1" id="Capa_1" x="0px" y="0px" viewBox="0 0 323.539 323.539" style="enable-background:new 0 0 323.539 323.539;" xml:space="preserve" width="512px" height="512px" class=""><g><g>
	<g>
		<g>
			<path d="M281.033,52.542c-1.944-2.121-5.239-2.264-7.36-0.32s-2.264,5.239-0.32,7.36l-0.16,0.12     c19.97,21.856,33.097,49.084,37.76,78.32l-111.32-24c-2.473-0.266-4.792,1.242-5.551,3.611c-0.883,2.756,0.635,5.706,3.391,6.589     l114.8,24.56c1.149,13.358,0.517,26.809-1.88,40l-58.28-12.48c-0.337-0.108-0.685-0.182-1.037-0.22     c-2.877-0.31-5.461,1.771-5.771,4.649s1.771,5.461,4.649,5.771l58.36,12.56c-20.06,79.049-99.144,127.992-178.84,110.68     c-63.326-13.737-110.901-66.232-118.36-130.6l186,40.64c2.502,0.3,4.863-1.223,5.621-3.626c0.871-2.76-0.661-5.703-3.421-6.574     l-189.2-41.2c-0.539-12.971,0.591-25.957,3.36-38.64c2.918-13.447,7.655-26.433,14.08-38.6l81.44,17.52     c0.338,0.108,0.685,0.182,1.038,0.22c2.877,0.31,5.461-1.771,5.771-4.649c0.31-2.877-1.771-5.461-4.649-5.771l-78.12-16.72     c33.785-54.237,97.971-81.441,160.44-68c21.501,4.61,41.734,13.866,59.28,27.12c2.197,1.429,5.112,1.015,6.824-0.969     c1.891-2.191,1.647-5.5-0.544-7.391c-18.617-14.024-40.036-23.874-62.8-28.88h-0.56c-69.402-14.906-140.423,17.118-175.2,79v0.28     c-7.729,13.858-13.376,28.778-16.76,44.28c-0.011,0.2-0.011,0.4,0,0.6c-3.186,14.76-4.29,29.894-3.28,44.96c0,0.16,0,0.44,0,0.44     c5.082,71.602,56.69,131.317,126.8,146.72h0.6c87.089,18.695,172.91-36.516,192-123.52c0.01-0.187,0.01-0.373,0-0.56     C330.878,144.597,316.417,91.195,281.033,52.542z" data-original="#000000" class="active-path" data-old_color="#000000" fill="#FFFFFF"/>
			<path d="M277.434,108.422c1.261,2.181,3.896,3.156,6.274,2.321c2.73-0.959,4.166-3.951,3.206-6.681     c-18.126-39.339-53.674-67.881-96-77.08c-2.502-0.3-4.863,1.223-5.621,3.626c-0.871,2.76,0.661,5.703,3.421,6.574h-0.16     C227.737,45.625,260.663,72.016,277.434,108.422z" data-original="#000000" class="active-path" data-old_color="#000000" fill="#FFFFFF"/>
			<path d="M65.293,140.369c-0.871,2.76,0.661,5.703,3.421,6.574l130.08,28.44c0.311,0.098,0.63,0.167,0.953,0.206     c2.873,0.344,5.482-1.706,5.826-4.579c0.344-2.873-1.706-5.482-4.579-5.826l-130.08-28.44     C68.412,136.442,66.051,137.966,65.293,140.369z" data-original="#000000" class="active-path" data-old_color="#000000" fill="#FFFFFF"/>
		</g>
	</g>
</g></g> </svg>
